<?xml version="1.0" encoding="UTF-8"?><svg xmlns="http://www.w3.org/2000/svg" viewBox="0 0 272.66 272.66"><defs><style>.cls-1{fill:#b57aff;mix-blend-mode:multiply;}.cls-1,.cls-2{stroke-width:0px;}.cls-2,.cls-3,.cls-4{fill:none;}.cls-3{stroke-linejoin:round;}.cls-3,.cls-4{stroke:#000;stroke-linecap:round;stroke-width:4px;}.cls-4{stroke-miterlimit:10;}.cls-5{isolation:isolate;}</style></defs><g class="cls-5"><g id="Layer_2"><g id="Layer_1-2"><rect class="cls-2" width="272.66" height="272.66"/><circle class="cls-1" cx="136.33" cy="155.24" r="104.62"/><path class="cls-4" d="M104.54,145.12c.03-.88-11.6-48.56-11.6-48.56,0,0-2.7-12.3,9.32-14.68,0,0,8.83-1.53,11.56,9.89l11.68,48.89"/><path class="cls-4" d="M116.78,104.22s-.86-3.91.66-7.55c2.94-7.06,13.66-7.08,16.95-.15.46.96.85,2.08,1.16,3.38l9.09,38.07"/><path class="cls-3" d="M145.04,137.56c.02-.66-5.74-24.02-5.74-24.02,0,0-2.05-9.32,6.94-11.11,0,0,6.6-1.15,8.67,7.52l7.56,31.65,6.03,25.24s8.84,27.44-6.37,44.95c-.54.62-1.09,1.24-1.61,1.87-3.87,4.68-26.35,29.65-59.11,13.12-2.8-1.41-8.11-4.8-13.66-10.04-8.56-8.08-23.01-23.49-34.18-43.41,0,0-1.26-1.75-1.54-4.66-.94-9.67,10.02-14.41,16.78-6.91.07.08.14.16.21.24l23.48,25.36-.34-3.41c.03-.88-17.71-74.14-17.71-74.14,0,0-2.7-12.3,9.15-14.65,0,0,8.71-1.51,11.44,9.91"/><path class="cls-4" d="M172.26,127.97c-.19-.86,2.49-49.64,2.49-49.64,0,0,.39-12.54-11.89-13.05,0,0-8.98-.16-9.57,11.52l-1.34,26.79"/><path class="cls-4" d="M152.66,89.53s.13-3.98-2.04-7.34c-4.2-6.51-14.77-4.89-16.74,2.44-.27,1.02-.46,2.18-.52,3.51l-.32,6.33"/><path class="cls-3" d="M157.91,216.67c9.53,1.11,20.72-.62,32.48-8.68,2.32-1.59,5.88-5.71,10.39-11.73,6.95-9.28,19.59-26.95,26.93-48.29,0,0,.92-1.92.66-4.83-.85-9.68-12.53-12.67-17.82-4.24-.05.09-.11.17-.16.26l-18.47,28.59-.3-3.42c-.19-.86,3.8-75.8,3.8-75.8,0,0,.39-12.54-11.72-13.04,0,0-8.86-.16-9.45,11.52"/><line class="cls-3" x1="50.66" y1="45.6" x2="72.77" y2="62.9"/><line class="cls-3" x1="78.6" y1="26.99" x2="97.36" y2="46.86"/><line class="cls-3" x1="113.29" y1="13.36" x2="121.24" y2="40.81"/><line class="cls-3" x1="156.99" y1="12.28" x2="147.26" y2="39.74"/><line class="cls-3" x1="194.44" y1="23.82" x2="176.24" y2="46.41"/></g></g></g></svg>