<?xml version="1.0" encoding="utf-8"?>
<!-- Generator: Adobe Illustrator 27.2.0, SVG Export Plug-In . SVG Version: 6.00 Build 0)  -->
<svg version="1.1" id="Layer_2_00000074424254792235576350000006714699839713449143_"
	 xmlns="http://www.w3.org/2000/svg" xmlns:xlink="http://www.w3.org/1999/xlink" x="0px" y="0px" viewBox="0 0 255.3 31.3"
	 style="enable-background:new 0 0 255.3 31.3;" xml:space="preserve">
<style type="text/css">
	.st0{fill:#FFFFFF;}
	.st1{fill:#26144D;}
</style>
<path class="st0" d="M15.6,2.8c4.2,0,4.7,0,6.3,0.1c1.5,0.1,2.4,0.3,2.9,0.5c0.7,0.3,1.2,0.6,1.8,1.2s0.9,1.1,1.2,1.8
	c0.2,0.6,0.5,1.4,0.5,2.9c0.1,1.6,0.1,2.1,0.1,6.3s0,4.7-0.1,6.3c-0.1,1.5-0.3,2.4-0.5,2.9c-0.3,0.7-0.6,1.2-1.2,1.8
	s-1.1,0.9-1.8,1.2c-0.5,0.2-1.4,0.5-2.9,0.5c-1.6,0.1-2.1,0.1-6.3,0.1s-4.7,0-6.3-0.1c-1.5-0.1-2.3-0.3-2.9-0.5
	c-0.7-0.3-1.2-0.6-1.8-1.2s-0.9-1.1-1.2-1.8C3.2,24.3,3,23.5,2.9,22c-0.1-1.6-0.1-2.1-0.1-6.3s0-4.7,0.1-6.3C3,7.8,3.2,7,3.4,6.4
	c0.3-0.7,0.6-1.2,1.2-1.8s1.1-0.9,1.8-1.2C7,3.2,7.8,3,9.3,2.9C11,2.8,11.5,2.8,15.6,2.8 M15.6,0c-4.2,0-4.8,0-6.4,0.1
	C7.5,0.2,6.4,0.4,5.4,0.8c-1,0.4-1.9,0.9-2.8,1.8S1.2,4.4,0.8,5.4c-0.4,1-0.6,2.1-0.7,3.8S0,11.4,0,15.6s0,4.8,0.1,6.4
	c0.1,1.7,0.3,2.8,0.7,3.8c0.4,1,0.9,1.9,1.8,2.8s1.7,1.4,2.8,1.8c1,0.4,2.1,0.6,3.8,0.7s2.2,0.1,6.4,0.1s4.8,0,6.4-0.1
	c1.7-0.1,2.8-0.3,3.8-0.7c1-0.4,1.9-0.9,2.8-1.8c0.9-0.9,1.4-1.7,1.8-2.8c0.4-1,0.6-2.1,0.7-3.8c0.1-1.7,0.1-2.2,0.1-6.4
	s0-4.8-0.1-6.4c-0.1-1.7-0.3-2.8-0.7-3.8c-0.4-1-0.9-1.9-1.8-2.8c-0.9-0.9-1.7-1.4-2.8-1.8c-1-0.4-2.1-0.6-3.8-0.7
	C20.4,0,19.9,0,15.6,0C15.6,0,15.6,0,15.6,0z"/>
<path class="st0" d="M15.6,7.6c-4.4,0-8,3.6-8,8s3.6,8,8,8s8-3.6,8-8S20.1,7.6,15.6,7.6z M15.6,20.9c-2.9,0-5.2-2.3-5.2-5.2
	s2.3-5.2,5.2-5.2s5.2,2.3,5.2,5.2S18.5,20.9,15.6,20.9z"/>
<circle class="st0" cx="24" cy="7.3" r="1.9"/>
<g>
	<path class="st1" d="M42.3,22.7c0.6,0,1.4-0.1,2.3-0.4V25c-0.9,0.4-2,0.6-3.4,0.6c-1.5,0-2.5-0.4-3.2-1.1c-0.7-0.7-1-1.9-1-3.3
		v-6.5h-1.8v-1.6l2-1.2L38.4,9h2.4v2.9h3.8v2.8h-3.8v6.5c0,0.5,0.1,0.9,0.4,1.2C41.5,22.6,41.8,22.7,42.3,22.7z"/>
	<path class="st1" d="M59.8,25.4h-3.7v-7.9c0-1.9-0.7-2.9-2.2-2.9c-1,0-1.8,0.3-2.2,1C51.3,16.3,51,17.5,51,19v6.3h-3.7V6.6H51v3.8
		c0,0.3,0,1-0.1,2.1l-0.1,1.1h0.2c0.8-1.3,2.1-2,3.9-2c1.6,0,2.8,0.4,3.6,1.3c0.8,0.9,1.2,2.1,1.2,3.7V25.4z"/>
	<path class="st1" d="M69.7,25.6c-2.2,0-3.9-0.6-5.1-1.8c-1.2-1.2-1.8-2.9-1.8-5.1c0-2.3,0.6-4,1.7-5.2c1.1-1.2,2.7-1.9,4.7-1.9
		c1.9,0,3.4,0.5,4.5,1.6s1.6,2.6,1.6,4.5v1.8h-8.7c0,1,0.3,1.9,0.9,2.4c0.6,0.6,1.4,0.9,2.4,0.9c0.8,0,1.6-0.1,2.3-0.3
		s1.5-0.4,2.3-0.8v2.8c-0.6,0.3-1.3,0.6-2.1,0.7C71.7,25.6,70.8,25.6,69.7,25.6z M69.2,14.3c-0.8,0-1.4,0.2-1.8,0.7
		c-0.4,0.5-0.7,1.2-0.8,2.1h5.2c0-0.9-0.3-1.6-0.7-2.1C70.6,14.5,70,14.3,69.2,14.3z"/>
	<path class="st1" d="M86.5,29.3H76.2v-1.7h10.3V29.3z"/>
	<path class="st1" d="M92.6,25.6c-1.6,0-2.8-0.6-3.7-1.8c-0.9-1.2-1.4-2.9-1.4-5.1c0-2.2,0.5-3.9,1.4-5.2c0.9-1.2,2.2-1.9,3.8-1.9
		c1.7,0,3,0.7,3.9,2h0.1c-0.2-1-0.3-1.9-0.3-2.7V6.6h3.7v18.8h-2.8l-0.7-1.8h-0.2C95.6,25,94.4,25.6,92.6,25.6z M93.9,22.7
		c0.9,0,1.6-0.3,2.1-0.8c0.4-0.5,0.7-1.5,0.7-2.8v-0.4c0-1.4-0.2-2.5-0.7-3.1s-1.2-0.9-2.2-0.9c-0.8,0-1.5,0.3-1.9,1
		c-0.5,0.7-0.7,1.7-0.7,3s0.2,2.3,0.7,3C92.4,22.4,93.1,22.7,93.9,22.7z"/>
	<path class="st1" d="M111.5,11.6c0.5,0,0.9,0,1.2,0.1l-0.3,3.5c-0.3-0.1-0.7-0.1-1.1-0.1c-1.2,0-2.1,0.3-2.7,0.9
		c-0.7,0.6-1,1.4-1,2.5v6.9H104V11.9h2.8l0.5,2.3h0.2c0.4-0.8,1-1.4,1.7-1.8C109.9,11.9,110.7,11.6,111.5,11.6z"/>
	<path class="st1" d="M115.1,8.4c0-1.2,0.7-1.8,2-1.8c1.3,0,2,0.6,2,1.8c0,0.6-0.2,1-0.5,1.3c-0.3,0.3-0.8,0.5-1.5,0.5
		C115.7,10.2,115.1,9.6,115.1,8.4z M118.9,25.4h-3.7V11.9h3.7V25.4z"/>
	<path class="st1" d="M135.2,25.4h-3.7v-7.9c0-1-0.2-1.7-0.5-2.2c-0.3-0.5-0.9-0.7-1.7-0.7c-1,0-1.8,0.3-2.2,1
		c-0.5,0.7-0.7,1.8-0.7,3.4v6.3h-3.7V11.9h2.8l0.5,1.7h0.2c0.4-0.7,1-1.1,1.7-1.5c0.7-0.3,1.5-0.5,2.5-0.5c1.6,0,2.8,0.4,3.6,1.3
		s1.2,2.1,1.2,3.7V25.4z"/>
	<path class="st1" d="M142.5,18.1l1.6-2.1l3.8-4.1h4.2l-5.4,5.9l5.7,7.6h-4.2l-3.9-5.5l-1.6,1.3v4.2H139V6.6h3.7V15L142.5,18.1
		L142.5,18.1z"/>
	<path class="st1" d="M163.7,21.4c0,1.4-0.5,2.4-1.4,3.2s-2.4,1.1-4.3,1.1c-1,0-1.8-0.1-2.5-0.2c-0.7-0.1-1.3-0.3-1.9-0.6v-3
		c0.7,0.3,1.5,0.6,2.3,0.8c0.9,0.2,1.6,0.3,2.3,0.3c1.3,0,2-0.4,2-1.2c0-0.3-0.1-0.5-0.3-0.7c-0.2-0.2-0.5-0.4-0.9-0.6
		c-0.4-0.2-1-0.5-1.7-0.8c-1-0.4-1.8-0.8-2.3-1.2c-0.5-0.4-0.8-0.8-1.1-1.3c-0.2-0.5-0.3-1.1-0.3-1.8c0-1.2,0.5-2.1,1.4-2.8
		c0.9-0.7,2.2-1,4-1c1.6,0,3.2,0.4,4.7,1.1l-1.1,2.7c-0.7-0.3-1.3-0.5-1.9-0.7c-0.6-0.2-1.2-0.3-1.8-0.3c-1.1,0-1.6,0.3-1.6,0.9
		c0,0.3,0.2,0.6,0.5,0.9c0.3,0.2,1.1,0.6,2.3,1.1c1.1,0.4,1.8,0.8,2.3,1.2c0.5,0.4,0.9,0.8,1.1,1.3S163.7,20.7,163.7,21.4z"/>
	<path class="st1" d="M174.9,29.3h-10.3v-1.7h10.3V29.3z"/>
	<path class="st1" d="M182.3,25.6c-4.2,0-6.3-2.3-6.3-6.9c0-2.3,0.6-4,1.7-5.3c1.1-1.2,2.8-1.8,4.9-1.8c1.6,0,3,0.3,4.2,0.9
		l-1.1,2.8c-0.6-0.2-1.1-0.4-1.6-0.6c-0.5-0.1-1-0.2-1.5-0.2c-1.9,0-2.9,1.4-2.9,4.1c0,2.6,1,4,2.9,4c0.7,0,1.4-0.1,2-0.3
		c0.6-0.2,1.2-0.5,1.8-0.9v3.1c-0.6,0.4-1.2,0.6-1.8,0.8C183.9,25.6,183.2,25.6,182.3,25.6z"/>
	<path class="st1" d="M201.7,18.6c0,2.2-0.6,3.9-1.7,5.2c-1.2,1.2-2.8,1.9-4.8,1.9c-1.3,0-2.4-0.3-3.4-0.9c-1-0.6-1.8-1.4-2.3-2.4
		c-0.5-1.1-0.8-2.3-0.8-3.7c0-2.2,0.6-3.9,1.7-5.1c1.2-1.2,2.8-1.8,4.9-1.8c1.3,0,2.4,0.3,3.4,0.8s1.7,1.4,2.3,2.4
		S201.7,17.2,201.7,18.6z M192.4,18.6c0,1.3,0.2,2.3,0.7,3s1.2,1,2.1,1c1,0,1.7-0.3,2.1-1c0.4-0.7,0.6-1.7,0.6-3
		c0-1.3-0.2-2.3-0.7-3c-0.4-0.7-1.1-1-2.1-1c-1,0-1.7,0.3-2.1,1S192.4,17.3,192.4,18.6z"/>
	<path class="st1" d="M208.5,25.4h-3.7V6.6h3.7V25.4z"/>
	<path class="st1" d="M216,25.4h-3.7V6.6h3.7V25.4z"/>
	<path class="st1" d="M228.4,25.4l-0.7-1.8h-0.1c-0.6,0.8-1.3,1.3-1.9,1.6c-0.7,0.3-1.5,0.5-2.6,0.5c-1.3,0-2.3-0.4-3.1-1.1
		c-0.7-0.7-1.1-1.8-1.1-3.2c0-1.4,0.5-2.5,1.5-3.2c1-0.7,2.5-1.1,4.5-1.1l2.3-0.1v-0.6c0-1.4-0.7-2.1-2.1-2.1c-1.1,0-2.3,0.3-3.8,1
		l-1.2-2.5c1.6-0.8,3.3-1.2,5.2-1.2c1.8,0,3.2,0.4,4.2,1.2c1,0.8,1.4,2,1.4,3.6v9H228.4z M227.3,19.1l-1.4,0c-1.1,0-1.9,0.2-2.4,0.6
		c-0.5,0.4-0.8,0.9-0.8,1.6c0,1,0.6,1.6,1.8,1.6c0.9,0,1.5-0.2,2-0.7c0.5-0.5,0.8-1.1,0.8-2V19.1z"/>
	<path class="st1" d="M242.3,11.6c1.6,0,2.8,0.6,3.7,1.9c0.9,1.2,1.4,2.9,1.4,5.1c0,2.2-0.5,4-1.4,5.2c-0.9,1.2-2.2,1.8-3.8,1.8
		c-1.6,0-2.8-0.6-3.7-1.7h-0.3l-0.6,1.5h-2.8V6.6h3.7V11c0,0.6,0,1.4-0.1,2.7h0.1C239.3,12.3,240.6,11.6,242.3,11.6z M241.1,14.6
		c-0.9,0-1.6,0.3-2,0.8c-0.4,0.6-0.6,1.5-0.7,2.8v0.4c0,1.4,0.2,2.5,0.6,3.1c0.4,0.6,1.1,0.9,2,0.9c0.8,0,1.4-0.3,1.8-1
		c0.4-0.7,0.7-1.7,0.7-3c0-1.3-0.2-2.3-0.7-3C242.5,14.9,241.9,14.6,241.1,14.6z"/>
</g>
</svg>
