<?xml version="1.0" encoding="UTF-8"?><svg id="Layer_2" xmlns="http://www.w3.org/2000/svg" viewBox="0 0 298.48 31.3"><defs><style>.cls-1{fill:#26144d;}.cls-1,.cls-2{stroke-width:0px;}.cls-2{fill:#fff;}</style></defs><g id="Layer_1-2"><path class="cls-1" d="M44.43,6.58v3.38h2.35v2.7h-2.35v6.87c0,.51.1.87.29,1.09.19.22.57.33,1.12.33.41,0,.77-.03,1.08-.09v2.78c-.72.22-1.46.33-2.22.33-2.58,0-3.89-1.3-3.94-3.9v-7.41h-2.01v-2.7h2.01v-3.38h3.67Z"/><path class="cls-1" d="M52.41,11.46c.97-1.17,2.2-1.75,3.67-1.75,2.98,0,4.5,1.73,4.54,5.2v8.81h-3.67v-8.71c0-.79-.17-1.37-.51-1.75s-.9-.57-1.69-.57c-1.08,0-1.86.42-2.34,1.25v9.78h-3.67V4.19h3.67v7.27Z"/><path class="cls-1" d="M69.73,23.97c-2.02,0-3.66-.62-4.93-1.86-1.27-1.24-1.9-2.89-1.9-4.95v-.36c0-1.38.27-2.62.8-3.71.53-1.09,1.29-1.93,2.27-2.52.98-.59,2.1-.88,3.35-.88,1.88,0,3.36.59,4.44,1.78,1.08,1.19,1.62,2.87,1.62,5.05v1.5h-8.76c.12.9.48,1.62,1.07,2.16s1.35.81,2.27.81c1.42,0,2.52-.51,3.32-1.54l1.81,2.02c-.55.78-1.3,1.39-2.24,1.82-.94.44-1.98.65-3.13.65ZM69.31,12.66c-.73,0-1.32.25-1.77.74-.45.49-.74,1.2-.87,2.12h5.11v-.29c-.02-.82-.24-1.45-.66-1.9-.42-.45-1.03-.67-1.81-.67Z"/><path class="cls-1" d="M77.66,21.91c0-.58.2-1.06.59-1.42.39-.36.89-.55,1.48-.55s1.1.18,1.49.55c.39.37.59.84.59,1.42s-.2,1.04-.58,1.41-.89.54-1.5.54-1.1-.18-1.49-.54-.58-.83-.58-1.41Z"/><path class="cls-1" d="M84.46,16.73c0-2.14.48-3.85,1.44-5.12s2.28-1.91,3.95-1.91c1.34,0,2.45.5,3.32,1.5v-7.02h3.69v19.53h-3.32l-.18-1.46c-.92,1.14-2.09,1.72-3.53,1.72-1.62,0-2.92-.64-3.9-1.91-.98-1.28-1.47-3.05-1.47-5.32ZM88.13,17.01c0,1.29.22,2.28.67,2.97s1.1,1.03,1.96,1.03c1.14,0,1.94-.48,2.4-1.44v-5.44c-.46-.96-1.25-1.44-2.38-1.44-1.77,0-2.66,1.44-2.66,4.32Z"/><path class="cls-1" d="M107.43,13.4c-.5-.07-.94-.1-1.32-.1-1.39,0-2.3.47-2.73,1.41v9h-3.67v-13.76h3.47l.1,1.64c.74-1.26,1.76-1.89,3.06-1.89.41,0,.79.06,1.14.17l-.05,3.53Z"/><path class="cls-1" d="M109.17,6.4c0-.55.18-1,.55-1.36.37-.36.87-.53,1.51-.53s1.13.18,1.5.53c.37.36.56.81.56,1.36s-.19,1.02-.57,1.37c-.38.36-.88.53-1.49.53s-1.12-.18-1.49-.53c-.38-.36-.57-.81-.57-1.37ZM113.08,23.71h-3.69v-13.76h3.69v13.76Z"/><path class="cls-1" d="M119.49,9.96l.11,1.59c.98-1.23,2.3-1.84,3.95-1.84,1.46,0,2.54.43,3.25,1.28s1.08,2.14,1.09,3.84v8.89h-3.67v-8.8c0-.78-.17-1.34-.51-1.7-.34-.35-.9-.53-1.69-.53-1.03,0-1.81.44-2.33,1.32v9.7h-3.67v-13.76h3.46Z"/><path class="cls-1" d="M135.68,18.19l-1.32,1.32v4.2h-3.67V4.19h3.67v10.82l.71-.92,3.52-4.13h4.41l-4.97,5.73,5.4,8.02h-4.22l-3.53-5.52Z"/><path class="cls-1" d="M152.04,19.91c0-.45-.22-.8-.67-1.06-.44-.26-1.16-.49-2.14-.69-3.27-.69-4.91-2.08-4.91-4.17,0-1.22.51-2.24,1.52-3.06,1.01-.82,2.34-1.23,3.97-1.23,1.75,0,3.14.41,4.19,1.23s1.57,1.89,1.57,3.2h-3.67c0-.53-.17-.96-.51-1.3-.34-.34-.87-.51-1.59-.51-.62,0-1.1.14-1.44.42-.34.28-.51.64-.51,1.07,0,.41.19.74.58.99s1.04.47,1.95.65c.92.18,1.69.39,2.31.62,1.94.71,2.91,1.95,2.91,3.7,0,1.25-.54,2.27-1.62,3.04-1.08.78-2.47,1.16-4.17,1.16-1.15,0-2.18-.21-3.07-.62-.89-.41-1.6-.97-2.1-1.69-.51-.72-.76-1.49-.76-2.32h3.48c.03.65.28,1.15.72,1.5s1.05.52,1.81.52c.7,0,1.23-.13,1.59-.4.36-.27.54-.62.54-1.05Z"/><path class="cls-1" d="M158.17,21.91c0-.58.2-1.06.59-1.42.39-.36.89-.55,1.48-.55s1.1.18,1.49.55c.39.37.59.84.59,1.42s-.2,1.04-.58,1.41-.89.54-1.5.54-1.1-.18-1.49-.54-.58-.83-.58-1.41Z"/><path class="cls-1" d="M177.93,16.96c0,2.12-.48,3.82-1.44,5.09s-2.26,1.91-3.9,1.91c-1.39,0-2.51-.48-3.37-1.45v6.48h-3.67V9.96h3.41l.13,1.35c.89-1.07,2.05-1.6,3.48-1.6,1.7,0,3.01.63,3.95,1.88.94,1.25,1.41,2.98,1.41,5.19v.19ZM174.25,16.69c0-1.28-.23-2.27-.68-2.96-.45-.7-1.11-1.04-1.98-1.04-1.15,0-1.95.44-2.38,1.32v5.63c.45.91,1.25,1.36,2.4,1.36,1.75,0,2.63-1.44,2.63-4.31Z"/><path class="cls-1" d="M188.17,23.71c-.17-.33-.29-.74-.37-1.23-.89.99-2.05,1.49-3.47,1.49-1.35,0-2.46-.39-3.35-1.17-.89-.78-1.33-1.76-1.33-2.95,0-1.46.54-2.58,1.62-3.36,1.08-.78,2.64-1.17,4.68-1.18h1.69v-.79c0-.64-.16-1.14-.49-1.53-.33-.38-.84-.57-1.54-.57-.62,0-1.1.15-1.46.45-.35.3-.53.7-.53,1.22h-3.67c0-.8.25-1.53.74-2.21.49-.68,1.19-1.21,2.08-1.6.9-.38,1.91-.58,3.03-.58,1.7,0,3.04.43,4.04,1.28,1,.85,1.49,2.05,1.49,3.59v5.96c0,1.31.19,2.29.55,2.96v.22h-3.71ZM185.13,21.16c.54,0,1.04-.12,1.5-.36.46-.24.8-.57,1.02-.97v-2.36h-1.37c-1.84,0-2.82.64-2.94,1.91v.22c-.01.46.15.83.47,1.13s.76.44,1.32.44Z"/><path class="cls-1" d="M201.89,13.4c-.5-.07-.94-.1-1.32-.1-1.39,0-2.3.47-2.73,1.41v9h-3.67v-13.76h3.47l.1,1.64c.74-1.26,1.76-1.89,3.06-1.89.41,0,.79.06,1.14.17l-.05,3.53Z"/><path class="cls-1" d="M208.69,6.58v3.38h2.35v2.7h-2.35v6.87c0,.51.1.87.29,1.09.19.22.57.33,1.12.33.41,0,.77-.03,1.08-.09v2.78c-.72.22-1.46.33-2.22.33-2.58,0-3.89-1.3-3.94-3.9v-7.41h-2.01v-2.7h2.01v-3.38h3.67Z"/><path class="cls-1" d="M216.47,9.96l.11,1.59c.98-1.23,2.3-1.84,3.95-1.84,1.46,0,2.54.43,3.25,1.28s1.08,2.14,1.09,3.84v8.89h-3.67v-8.8c0-.78-.17-1.34-.51-1.7-.34-.35-.9-.53-1.69-.53-1.03,0-1.81.44-2.33,1.32v9.7h-3.67v-13.76h3.46Z"/><path class="cls-1" d="M234,23.97c-2.02,0-3.66-.62-4.93-1.86-1.27-1.24-1.9-2.89-1.9-4.95v-.36c0-1.38.27-2.62.8-3.71.53-1.09,1.29-1.93,2.27-2.52.98-.59,2.1-.88,3.35-.88,1.88,0,3.36.59,4.44,1.78,1.08,1.19,1.62,2.87,1.62,5.05v1.5h-8.76c.12.9.48,1.62,1.07,2.16s1.35.81,2.27.81c1.42,0,2.52-.51,3.32-1.54l1.81,2.02c-.55.78-1.3,1.39-2.24,1.82-.94.44-1.98.65-3.13.65ZM233.58,12.66c-.73,0-1.32.25-1.77.74-.45.49-.74,1.2-.87,2.12h5.11v-.29c-.02-.82-.24-1.45-.66-1.9-.42-.45-1.03-.67-1.81-.67Z"/><path class="cls-1" d="M249.48,13.4c-.5-.07-.94-.1-1.32-.1-1.39,0-2.3.47-2.73,1.41v9h-3.67v-13.76h3.47l.1,1.64c.74-1.26,1.76-1.89,3.06-1.89.41,0,.79.06,1.14.17l-.05,3.53Z"/><path class="cls-1" d="M258.69,19.91c0-.45-.22-.8-.67-1.06-.44-.26-1.16-.49-2.14-.69-3.27-.69-4.91-2.08-4.91-4.17,0-1.22.51-2.24,1.52-3.06,1.01-.82,2.34-1.23,3.97-1.23,1.75,0,3.14.41,4.19,1.23s1.57,1.89,1.57,3.2h-3.67c0-.53-.17-.96-.51-1.3-.34-.34-.87-.51-1.59-.51-.62,0-1.1.14-1.44.42-.34.28-.51.64-.51,1.07,0,.41.19.74.58.99s1.04.47,1.95.65c.92.18,1.69.39,2.31.62,1.94.71,2.91,1.95,2.91,3.7,0,1.25-.54,2.27-1.62,3.04-1.08.78-2.47,1.16-4.17,1.16-1.15,0-2.18-.21-3.07-.62-.89-.41-1.6-.97-2.1-1.69-.51-.72-.76-1.49-.76-2.32h3.48c.03.65.28,1.15.72,1.5s1.05.52,1.81.52c.7,0,1.23-.13,1.59-.4.36-.27.54-.62.54-1.05Z"/><path class="cls-1" d="M268.21,11.46c.97-1.17,2.2-1.75,3.67-1.75,2.98,0,4.5,1.73,4.54,5.2v8.81h-3.67v-8.71c0-.79-.17-1.37-.51-1.75s-.9-.57-1.69-.57c-1.08,0-1.86.42-2.34,1.25v9.78h-3.67V4.19h3.67v7.27Z"/><path class="cls-1" d="M279.17,6.4c0-.55.18-1,.55-1.36.37-.36.87-.53,1.51-.53s1.13.18,1.5.53c.37.36.56.81.56,1.36s-.19,1.02-.57,1.37c-.38.36-.88.53-1.49.53s-1.12-.18-1.49-.53c-.38-.36-.57-.81-.57-1.37ZM283.08,23.71h-3.69v-13.76h3.69v13.76Z"/><path class="cls-1" d="M298.48,16.96c0,2.12-.48,3.82-1.44,5.09s-2.26,1.91-3.9,1.91c-1.39,0-2.51-.48-3.37-1.45v6.48h-3.67V9.96h3.41l.13,1.35c.89-1.07,2.05-1.6,3.48-1.6,1.7,0,3.01.63,3.95,1.88.94,1.25,1.41,2.98,1.41,5.19v.19ZM294.81,16.69c0-1.28-.23-2.27-.68-2.96-.45-.7-1.11-1.04-1.98-1.04-1.15,0-1.95.44-2.38,1.32v5.63c.45.91,1.25,1.36,2.4,1.36,1.75,0,2.63-1.44,2.63-4.31Z"/><path class="cls-2" d="M15.65,2.82c4.18,0,4.67.02,6.32.09,1.53.07,2.35.32,2.91.54.73.28,1.25.62,1.8,1.17s.89,1.07,1.17,1.8c.21.55.47,1.38.54,2.91.08,1.65.09,2.15.09,6.32s-.02,4.67-.09,6.32c-.07,1.53-.32,2.35-.54,2.91-.28.73-.62,1.25-1.17,1.8-.55.55-1.07.89-1.8,1.17-.55.21-1.38.47-2.91.54-1.65.08-2.15.09-6.32.09s-4.67-.02-6.32-.09c-1.53-.07-2.35-.32-2.91-.54-.73-.28-1.25-.62-1.8-1.17s-.89-1.07-1.17-1.8c-.21-.55-.47-1.38-.54-2.91-.08-1.65-.09-2.15-.09-6.32s.02-4.67.09-6.32c.07-1.53.32-2.35.54-2.91.28-.73.62-1.25,1.17-1.8.55-.55,1.07-.89,1.8-1.17.55-.21,1.38-.47,2.91-.54,1.65-.08,2.15-.09,6.32-.09M15.65,0c-4.25,0-4.78.02-6.45.09-1.67.08-2.8.34-3.8.73-1.03.4-1.9.94-2.77,1.81-.87.87-1.41,1.74-1.81,2.77-.39,1-.65,2.13-.73,3.8-.08,1.67-.09,2.2-.09,6.45s.02,4.78.09,6.45c.08,1.67.34,2.8.73,3.8.4,1.03.94,1.9,1.81,2.77.87.87,1.74,1.41,2.77,1.81,1,.39,2.13.65,3.8.73,1.67.08,2.2.09,6.45.09s4.78-.02,6.45-.09c1.67-.08,2.8-.34,3.8-.73,1.03-.4,1.9-.94,2.77-1.81.87-.87,1.41-1.74,1.81-2.77.39-1,.65-2.13.73-3.8.08-1.67.09-2.2.09-6.45s-.02-4.78-.09-6.45c-.08-1.67-.34-2.8-.73-3.8-.4-1.03-.94-1.9-1.81-2.77-.87-.87-1.74-1.41-2.77-1.81-1-.39-2.13-.65-3.8-.73-1.67-.08-2.2-.09-6.45-.09h0Z"/><path class="cls-2" d="M15.65,7.61c-4.44,0-8.04,3.6-8.04,8.04s3.6,8.04,8.04,8.04,8.04-3.6,8.04-8.04-3.6-8.04-8.04-8.04ZM15.65,20.87c-2.88,0-5.22-2.34-5.22-5.22s2.34-5.22,5.22-5.22,5.22,2.34,5.22,5.22-2.34,5.22-5.22,5.22Z"/><circle class="cls-2" cx="24.01" cy="7.3" r="1.88"/></g></svg>