<?xml version="1.0" encoding="UTF-8"?>
<svg id="Layer_2" data-name="Layer 2" xmlns="http://www.w3.org/2000/svg" viewBox="0 0 484.55 221.33">
  <defs>
    <style>
      .cls-1 {
        fill: #fff;
      }

      .cls-2 {
        fill: #291951;
      }
    </style>
  </defs>
  <g id="Layer_1-2" data-name="Layer 1">
    <g>
      <path class="cls-2" d="m221.3,107.22l-62,21.72,61.29,45.86-78.43-24-2.15,50.57-30-34.29-30.9,54.25.59-61.09-57.18,21.52,51.06-49.82L0,116.48l72.72-14.11L.29,27.79l88.29,46.72L71.51,0l40.19,69.17c-.14.18-.24.3-.33.42-3,4.07-6.06,8.08-8.99,12.2-5.4,7.6-10.47,15.41-14.9,23.63-2.38,4.42-4.56,8.93-6.13,13.72-.81,2.47-1.48,4.99-1.55,7.61-.13,4.36.63,8.59,2.24,12.63,5.74,14.41,20.38,22.64,35.48,19.83,8.79-1.64,15.71-6.36,20.74-13.85,2.93-4.35,4.62-9.19,5.19-14.42.23-2.09.3-4.19-.03-6.28-.44-2.88-1.31-5.64-2.36-8.35-2.1-5.38-4.78-10.48-7.68-15.45-6.09-10.45-12.99-20.33-20.3-29.94-.44-.57-.89-1.14-1.37-1.76l31.89-45.4-5.13,51.2,91.71-26.03-77.45,47.72,68.57,10.57Z"/>
      <path class="cls-1" d="m236.12,21.92v8.87h14.03v38.77h11.49V30.79h14.29v-8.87h-39.81Z"/>
      <path class="cls-1" d="m310.18,21.92v18.91h-16.92v-18.91h-11.48v47.64h11.48v-19.89h16.92v19.89h11.41V21.92h-11.41Z"/>
      <path class="cls-1" d="m362.74,30.79v-8.87h-32.88v47.64h32.81v-8.84h-21.33v-11.38h18.06v-8.51h-18.06v-10.04h21.4Z"/>
      <path class="cls-2" d="m273.1,96.87c-1.89-3.48-4.51-6.18-7.87-8.08-3.36-1.91-7.14-2.87-11.35-2.87h-15.34v47.64h15.67c4.12-.03,7.86-1.01,11.2-2.97,3.35-1.95,5.95-4.65,7.79-8.11,1.84-3.45,2.76-7.36,2.76-11.73v-2.19c-.02-4.32-.97-8.21-2.86-11.69Zm-8.85,13.88c0,4.63-.88,8.11-2.65,10.46-1.76,2.34-4.29,3.51-7.59,3.51h-3.99v-29.93h3.86c3.38,0,5.96,1.17,7.72,3.5,1.77,2.33,2.65,5.8,2.65,10.4v2.06Z"/>
      <path class="cls-2" d="m311.32,113.83c2.86-1.35,4.96-3.11,6.3-5.29,1.34-2.18,2.01-4.93,2.01-8.24,0-4.57-1.59-8.11-4.78-10.62-3.18-2.5-7.6-3.76-13.25-3.76h-18.74v47.64h11.48v-16.85h6.22l8.4,16.85h12.31v-.5l-9.95-19.23Zm-4.79-7.68c-1.1,1.15-2.74,1.72-4.93,1.72h-7.26v-13.11h7.26c2.16,0,3.8.58,4.91,1.75s1.67,2.78,1.67,4.84-.55,3.65-1.65,4.8Z"/>
      <path class="cls-2" d="m328.36,85.92v47.64h11.45v-47.64h-11.45Z"/>
      <path class="cls-2" d="m377.12,85.92v29.64l-16.84-29.64h-11.49v47.64h11.49v-29.64l16.88,29.64h11.41v-47.64h-11.45Z"/>
      <path class="cls-2" d="m436.79,85.92h-14.2l-10.27,14.95-4,6.06v-21.01h-11.48v47.64h11.48v-12.57l4.72-5.17,10.14,17.74h13.61l-16.1-26.57,16.1-21.07Z"/>
      <path class="cls-2" d="m469.04,108.56c-2.12-1.22-4.83-2.36-8.12-3.42-3.29-1.05-5.59-2.08-6.9-3.07s-1.96-2.1-1.96-3.32c0-1.4.59-2.55,1.78-3.45,1.19-.91,2.81-1.36,4.86-1.36s3.63.53,4.82,1.6,1.79,2.57,1.79,4.52h11.45c0-2.9-.76-5.48-2.26-7.74-1.51-2.26-3.62-4-6.33-5.22-2.72-1.22-5.79-1.83-9.21-1.83s-6.67.56-9.49,1.68c-2.81,1.13-4.99,2.7-6.52,4.71-1.54,2.02-2.31,4.35-2.31,6.99,0,5.3,3.08,9.46,9.26,12.5,1.89.93,4.34,1.9,7.32,2.91,2.99,1,5.08,1.97,6.27,2.91,1.19.94,1.78,2.25,1.78,3.92,0,1.49-.55,2.64-1.65,3.46-1.1.81-2.6,1.22-4.5,1.22-2.96,0-5.11-.6-6.42-1.81-1.33-1.21-1.99-3.09-1.99-5.65h-11.51c0,3.14.79,5.92,2.37,8.33,1.58,2.41,3.94,4.31,7.07,5.69,3.13,1.39,6.62,2.08,10.48,2.08,5.48,0,9.78-1.19,12.92-3.57,3.15-2.37,4.72-5.64,4.72-9.81,0-5.21-2.58-9.3-7.72-12.27Z"/>
      <path class="cls-1" d="m263.44,187.35c-1.4,1.24-3.42,1.86-6.06,1.86-3.12,0-5.31-1.09-6.59-3.27-1.27-2.18-1.91-5.81-1.91-10.89v-3.37c.06-4.69.76-8.1,2.09-10.24s3.42-3.21,6.28-3.21,4.91.64,6.28,1.9c1.38,1.27,2.11,3.35,2.19,6.25h11.46c-.48-5.35-2.48-9.54-5.99-12.58-3.51-3.04-8.16-4.56-13.94-4.56-4.01,0-7.54.95-10.6,2.86-3.05,1.91-5.39,4.61-7.02,8.11-1.62,3.5-2.43,7.59-2.43,12.25v2.36c0,7.44,1.8,13.19,5.4,17.27,3.6,4.08,8.52,6.12,14.78,6.12,3.8,0,7.17-.7,10.13-2.09,2.95-1.4,5.25-3.37,6.88-5.91,1.64-2.54,2.53-5.47,2.69-8.78h-11.42c-.09,2.7-.83,4.68-2.22,5.92Z"/>
      <path class="cls-1" d="m320.18,160.34c-1.76-3.54-4.22-6.27-7.38-8.19-3.16-1.92-6.76-2.88-10.79-2.88s-7.72.97-10.91,2.91c-3.2,1.94-5.65,4.69-7.37,8.26-1.71,3.57-2.56,7.68-2.56,12.35v2.68c.08,4.5,1.01,8.48,2.76,11.94,1.76,3.47,4.2,6.14,7.35,8,3.14,1.87,6.74,2.8,10.79,2.8s7.67-.97,10.85-2.9c3.17-1.93,5.62-4.68,7.34-8.26,1.72-3.57,2.59-7.68,2.59-12.33v-2.19c-.03-4.58-.92-8.64-2.67-12.19Zm-9.01,14.58c-.03,4.62-.82,8.16-2.39,10.63-1.57,2.46-3.81,3.7-6.71,3.7-3.05,0-5.35-1.26-6.9-3.77-1.55-2.5-2.32-6.09-2.32-10.76l.03-3.5c.33-8.64,3.37-12.95,9.13-12.95,2.94,0,5.2,1.22,6.78,3.68,1.58,2.45,2.38,6.04,2.38,10.78v2.19Z"/>
      <path class="cls-1" d="m340.25,188.72v-38.8h-11.48v47.64h31.47v-8.84h-19.99Z"/>
      <path class="cls-1" d="m376.56,188.72v-38.8h-11.48v47.64h31.47v-8.84h-19.99Z"/>
      <path class="cls-1" d="m426.58,149.92h-10.79l-17.47,47.64h12.27l2.74-8.9h15.74l2.78,8.9h12.33l-17.6-47.64Zm-10.5,29.87l5.11-16.52,5.13,16.52h-10.24Z"/>
      <path class="cls-1" d="m482.56,176.91c-1.33-1.79-3.24-3.01-5.73-3.66,2.21-.83,3.88-2.12,5.01-3.86,1.13-1.75,1.7-3.85,1.7-6.32,0-4.27-1.6-7.53-4.79-9.78-3.2-2.24-7.86-3.37-13.99-3.37h-17.11v47.64h19.34c5.8-.05,10.18-1.24,13.13-3.59,2.96-2.34,4.43-5.85,4.43-10.51,0-2.58-.66-4.76-1.99-6.55Zm-23.43-18.15h5.63c2.57,0,4.44.44,5.6,1.32,1.15.89,1.73,2.34,1.73,4.35,0,1.75-.54,3.08-1.6,3.97-1.07.9-2.86,1.36-5.37,1.38h-5.99v-11.02Zm12.31,28.54c-1.12.95-2.71,1.42-4.78,1.42h-7.53v-11.41h8.05c3.95.02,5.92,2.01,5.92,5.98,0,1.73-.55,3.06-1.66,4.01Z"/>
    </g>
  </g>
</svg>