<?xml version="1.0" encoding="UTF-8"?><svg id="Layer_2" xmlns="http://www.w3.org/2000/svg" viewBox="0 0 317.19 100.02"><defs><style>.cls-1{fill:#1f093f;}.cls-1,.cls-2,.cls-3{stroke-width:0px;}.cls-2{fill:#b57aff;}.cls-3{fill:#fff;}</style></defs><g id="Layer_1-2"><path class="cls-3" d="M35.25,0c.53.68,1.02,1.31,1.51,1.95,8.07,10.6,15.69,21.51,22.41,33.05,3.2,5.49,6.16,11.11,8.47,17.06,1.16,2.98,2.12,6.03,2.61,9.21.36,2.31.28,4.62.03,6.93-.63,5.78-2.5,11.12-5.73,15.93-5.56,8.26-13.19,13.47-22.9,15.28-16.67,3.11-32.83-5.98-39.17-21.89C.71,73.06-.13,68.4.02,63.58c.08-2.89.82-5.67,1.72-8.4,1.74-5.29,4.14-10.27,6.77-15.14,4.9-9.08,10.49-17.71,16.45-26.09,3.23-4.54,6.61-8.98,9.92-13.47.1-.14.21-.27.38-.48Z"/><polygon class="cls-2" points="60.59 37.23 38.9 37.23 27.77 66.39 39.67 66.39 27.15 99.11 58.78 65.75 45.31 65.75 60.59 37.23"/><path class="cls-3" d="M102.05,43.41h-7.41v20.08h-5.95v-20.08h-7.27v-4.59h20.62v4.59Z"/><path class="cls-3" d="M125.7,63.49h-5.91v-10.3h-8.76v10.3h-5.95v-24.67h5.95v9.79h8.76v-9.79h5.91v24.67Z"/><path class="cls-3" d="M145.29,53.02h-9.35v5.9h11.05v4.58h-17v-24.67h17.03v4.59h-11.08v5.2h9.35v4.41Z"/><path class="cls-1" d="M159.09,63.49v-24.67h7.95c2.18,0,4.14.5,5.88,1.48,1.74.99,3.1,2.38,4.07,4.19.98,1.8,1.47,3.82,1.48,6.06v1.14c0,2.26-.48,4.28-1.43,6.07-.95,1.79-2.3,3.19-4.03,4.2-1.73,1.01-3.67,1.52-5.8,1.53h-8.12ZM165.04,43.41v15.51h2.07c1.71,0,3.02-.61,3.93-1.82.92-1.21,1.37-3.02,1.37-5.41v-1.07c0-2.38-.46-4.18-1.37-5.39-.92-1.21-2.25-1.81-4-1.81h-2Z"/><path class="cls-1" d="M191.21,54.77h-3.22v8.73h-5.95v-24.67h9.71c2.93,0,5.21.65,6.86,1.95,1.65,1.3,2.47,3.13,2.47,5.5,0,1.72-.35,3.14-1.04,4.27-.69,1.13-1.78,2.04-3.26,2.74l5.15,9.96v.25h-6.37l-4.35-8.73ZM187.99,50.19h3.76c1.13,0,1.98-.3,2.55-.89s.86-1.42.86-2.49-.29-1.9-.87-2.51c-.58-.61-1.42-.91-2.54-.91h-3.76v6.8Z"/><path class="cls-1" d="M211.54,63.49h-5.93v-24.67h5.93v24.67Z"/><path class="cls-1" d="M236.8,63.49h-5.91l-8.74-15.35v15.35h-5.95v-24.67h5.95l8.73,15.35v-15.35h5.93v24.67Z"/><path class="cls-1" d="M249.47,54.31l-2.44,2.68v6.51h-5.95v-24.67h5.95v10.88l2.07-3.13,5.32-7.74h7.35l-8.34,10.91,8.34,13.76h-7.05l-5.25-9.18Z"/><path class="cls-1" d="M276.53,56.94c0-.87-.31-1.55-.92-2.03-.62-.49-1.7-.99-3.24-1.51-1.55-.52-2.81-1.02-3.8-1.51-3.2-1.57-4.8-3.73-4.8-6.47,0-1.37.4-2.57,1.19-3.62.8-1.04,1.92-1.86,3.38-2.44,1.46-.58,3.1-.87,4.91-.87s3.36.32,4.77.95c1.41.63,2.5,1.53,3.28,2.7s1.17,2.5,1.17,4.01h-5.93c0-1.01-.31-1.78-.92-2.34-.62-.55-1.45-.83-2.5-.83s-1.9.23-2.52.7c-.62.47-.92,1.06-.92,1.79,0,.63.34,1.21,1.02,1.72.68.51,1.87,1.04,3.58,1.59,1.71.55,3.11,1.14,4.2,1.77,2.67,1.54,4,3.65,4,6.35,0,2.16-.81,3.85-2.44,5.08-1.63,1.23-3.86,1.85-6.69,1.85-2,0-3.81-.36-5.43-1.08-1.62-.72-2.84-1.7-3.66-2.95-.82-1.25-1.23-2.69-1.23-4.31h5.96c0,1.32.34,2.3,1.03,2.92.68.63,1.79.94,3.33.94.98,0,1.76-.21,2.33-.64.57-.42.86-1.02.86-1.79Z"/><path class="cls-3" d="M88.63,89.83v8.37h-5.95v-24.67h9.84c1.89,0,3.56.35,5.01,1.04,1.45.69,2.58,1.68,3.37,2.97.8,1.28,1.19,2.74,1.19,4.36,0,2.41-.86,4.33-2.58,5.77s-4.09,2.16-7.09,2.16h-3.8ZM88.63,85.24h3.9c1.15,0,2.03-.29,2.63-.86s.91-1.39.91-2.44c0-1.15-.31-2.07-.93-2.76-.62-.69-1.47-1.04-2.54-1.05h-3.97v7.12Z"/><path class="cls-3" d="M116.79,93.59h-8.15l-1.42,4.61h-6.35l9.05-24.67h5.59l9.12,24.67h-6.39l-1.44-4.61ZM110.06,89h5.3l-2.66-8.56-2.64,8.56Z"/><path class="cls-3" d="M136.1,89.47h-3.22v8.73h-5.95v-24.67h9.71c2.93,0,5.21.65,6.86,1.95,1.65,1.3,2.47,3.13,2.47,5.5,0,1.72-.35,3.14-1.04,4.27-.69,1.13-1.78,2.04-3.26,2.74l5.15,9.96v.25h-6.37l-4.36-8.73ZM132.88,84.9h3.76c1.13,0,1.98-.3,2.55-.89.57-.59.86-1.42.86-2.49s-.29-1.9-.86-2.51c-.58-.61-1.42-.91-2.54-.91h-3.76v6.8Z"/><path class="cls-3" d="M168.62,78.12h-7.41v20.08h-5.95v-20.08h-7.27v-4.59h20.62v4.59Z"/><path class="cls-3" d="M192.25,98.2h-5.91l-8.74-15.35v15.35h-5.95v-24.67h5.95l8.73,15.35v-15.35h5.93v24.67Z"/><path class="cls-3" d="M211.83,87.73h-9.35v5.9h11.05v4.58h-17v-24.67h17.03v4.59h-11.08v5.2h9.35v4.41Z"/><path class="cls-3" d="M225.64,89.47h-3.22v8.73h-5.95v-24.67h9.71c2.93,0,5.21.65,6.86,1.95,1.65,1.3,2.47,3.13,2.47,5.5,0,1.72-.35,3.14-1.04,4.27s-1.78,2.04-3.26,2.74l5.15,9.96v.25h-6.37l-4.35-8.73ZM222.42,84.9h3.76c1.13,0,1.98-.3,2.55-.89s.86-1.42.86-2.49-.29-1.9-.87-2.51c-.58-.61-1.42-.91-2.54-.91h-3.76v6.8Z"/><path class="cls-3" d="M252.36,91.64c0-.87-.31-1.55-.92-2.03s-1.7-.99-3.24-1.51c-1.55-.52-2.81-1.02-3.8-1.51-3.2-1.57-4.8-3.73-4.8-6.47,0-1.37.4-2.57,1.19-3.62s1.92-1.86,3.38-2.44c1.46-.58,3.1-.87,4.91-.87s3.36.32,4.77.95c1.41.63,2.5,1.53,3.28,2.7s1.17,2.5,1.17,4.01h-5.93c0-1.01-.31-1.78-.92-2.34-.62-.55-1.45-.83-2.5-.83s-1.9.23-2.52.7c-.62.47-.92,1.06-.92,1.79,0,.63.34,1.21,1.02,1.72.68.51,1.87,1.04,3.58,1.59,1.71.55,3.11,1.14,4.2,1.77,2.67,1.54,4,3.65,4,6.35,0,2.16-.81,3.85-2.44,5.08-1.63,1.23-3.86,1.85-6.69,1.85-2,0-3.81-.36-5.43-1.08-1.62-.72-2.84-1.7-3.66-2.95-.82-1.25-1.23-2.69-1.23-4.31h5.96c0,1.32.34,2.3,1.03,2.92.68.63,1.79.94,3.33.94.98,0,1.76-.21,2.33-.64.57-.42.86-1.02.86-1.79Z"/><path class="cls-3" d="M282.5,98.2h-5.91v-10.3h-8.76v10.3h-5.95v-24.67h5.95v9.79h8.76v-9.79h5.91v24.67Z"/><path class="cls-3" d="M293.12,98.2h-5.93v-24.67h5.93v24.67Z"/><path class="cls-3" d="M303.72,89.83v8.37h-5.95v-24.67h9.85c1.89,0,3.56.35,5.01,1.04,1.45.69,2.58,1.68,3.37,2.97s1.19,2.74,1.19,4.36c0,2.41-.86,4.33-2.58,5.77-1.72,1.44-4.09,2.16-7.09,2.16h-3.8ZM303.72,85.24h3.9c1.15,0,2.03-.29,2.63-.86s.91-1.39.91-2.44c0-1.15-.31-2.07-.93-2.76-.62-.69-1.47-1.04-2.54-1.05h-3.97v7.12Z"/></g></svg>