<?xml version="1.0" encoding="UTF-8"?>
<svg id="Layer_2" data-name="Layer 2" xmlns="http://www.w3.org/2000/svg" viewBox="0 0 294.75 109.2">
  <defs>
    <style>
      .cls-1 {
        fill: #fff;
      }

      .cls-2 {
        fill: #b57aff;
      }

      .cls-3 {
        fill: #1f093f;
      }
    </style>
  </defs>
  <g id="Layer_2-2" data-name="Layer 2">
    <g>
      <g>
        <polygon class="cls-3" points="70.85 11.72 68.32 36.98 113.57 24.14 75.36 47.69 109.19 52.9 78.6 63.62 108.84 86.24 70.14 74.4 69.08 99.35 54.28 82.44 39.04 109.2 39.32 79.06 11.11 89.68 36.31 65.1 0 57.47 35.88 50.51 .15 13.71 43.71 36.76 35.29 0 55.12 34.12 70.85 11.72"/>
        <path class="cls-2" d="m55.12,34.12c.24.3.46.59.67.87,3.61,4.74,7.01,9.61,10.02,14.77,1.43,2.46,2.75,4.97,3.79,7.63.52,1.33.95,2.69,1.17,4.12.16,1.03.13,2.07.01,3.1-.28,2.58-1.12,4.97-2.56,7.12-2.48,3.69-5.89,6.02-10.23,6.83-7.45,1.39-14.67-2.67-17.5-9.78-.8-2-1.17-4.08-1.11-6.23.04-1.29.37-2.53.77-3.76.78-2.36,1.85-4.59,3.02-6.77,2.19-4.06,4.69-7.91,7.35-11.66,1.44-2.03,2.95-4.01,4.43-6.02.05-.06.1-.12.17-.21Z"/>
      </g>
      <g>
        <g>
          <path class="cls-3" d="m172.2,51.88v-19.12h6.16c1.69,0,3.21.38,4.56,1.15,1.35.77,2.4,1.85,3.16,3.24.76,1.4,1.14,2.96,1.15,4.7v.88c0,1.75-.37,3.32-1.11,4.71s-1.78,2.47-3.13,3.26c-1.34.78-2.84,1.18-4.5,1.19h-6.29Zm4.61-15.57v12.02h1.6c1.32,0,2.34-.47,3.05-1.41s1.06-2.34,1.06-4.2v-.83c0-1.85-.35-3.24-1.06-4.18-.71-.94-1.74-1.41-3.1-1.41h-1.55Z"/>
          <path class="cls-3" d="m197.1,45.11h-2.5v6.76h-4.61v-19.12h7.53c2.27,0,4.04.5,5.32,1.51,1.28,1.01,1.92,2.43,1.92,4.26,0,1.33-.27,2.43-.81,3.31s-1.38,1.58-2.53,2.13l3.99,7.72v.2h-4.94l-3.38-6.76Zm-2.5-3.55h2.92c.88,0,1.53-.23,1.98-.69s.66-1.1.66-1.93-.22-1.47-.67-1.94c-.45-.47-1.1-.7-1.97-.7h-2.92v5.27Z"/>
          <path class="cls-3" d="m212.86,51.88h-4.6v-19.12h4.6v19.12Z"/>
          <path class="cls-3" d="m232.44,51.88h-4.58l-6.78-11.9v11.9h-4.61v-19.12h4.61l6.76,11.9v-11.9h4.6v19.12Z"/>
          <path class="cls-3" d="m242.26,44.76l-1.89,2.08v5.04h-4.61v-19.12h4.61v8.43l1.6-2.43,4.12-6h5.7l-6.46,8.46,6.46,10.67h-5.46l-4.07-7.12Z"/>
          <path class="cls-3" d="m263.23,46.79c0-.67-.24-1.2-.72-1.58s-1.32-.77-2.52-1.17c-1.2-.4-2.18-.79-2.94-1.17-2.48-1.22-3.72-2.89-3.72-5.02,0-1.06.31-1.99.93-2.8s1.49-1.44,2.62-1.89c1.13-.45,2.4-.68,3.81-.68s2.61.25,3.7.74c1.09.49,1.94,1.19,2.54,2.1s.91,1.94.91,3.11h-4.6c0-.78-.24-1.38-.72-1.81-.48-.43-1.12-.64-1.94-.64s-1.47.18-1.95.55c-.48.36-.72.83-.72,1.39,0,.49.26.93.79,1.33.53.4,1.45.81,2.77,1.24,1.32.42,2.41.88,3.26,1.37,2.07,1.19,3.1,2.83,3.1,4.93,0,1.67-.63,2.99-1.89,3.94-1.26.95-2.99,1.43-5.19,1.43-1.55,0-2.95-.28-4.21-.83-1.26-.56-2.2-1.32-2.84-2.29-.63-.97-.95-2.08-.95-3.34h4.62c0,1.02.27,1.78.79,2.27.53.49,1.39.73,2.58.73.76,0,1.36-.16,1.81-.49.44-.33.66-.79.66-1.39Z"/>
        </g>
        <path class="cls-1" d="m127.99,36.31h-5.74v15.57h-4.61v-15.57h-5.64v-3.56h15.99v3.56Z"/>
        <path class="cls-1" d="m146.32,51.88h-4.58v-7.99h-6.79v7.99h-4.61v-19.12h4.61v7.59h6.79v-7.59h4.58v19.12Z"/>
        <path class="cls-1" d="m161.5,43.76h-7.25v4.57h8.56v3.55h-13.17v-19.12h13.2v3.56h-8.59v4.03h7.25v3.42Z"/>
        <path class="cls-1" d="m117.59,72.29v6.49h-4.61v-19.12h7.63c1.46,0,2.76.27,3.88.81,1.13.54,2,1.3,2.61,2.3.62.99.93,2.12.93,3.38,0,1.87-.67,3.36-2,4.47s-3.17,1.67-5.5,1.67h-2.94Zm0-3.56h3.02c.89,0,1.57-.22,2.04-.67s.7-1.08.7-1.89c0-.89-.24-1.61-.72-2.14-.48-.53-1.14-.81-1.97-.81h-3.07v5.52Z"/>
        <path class="cls-1" d="m139.41,75.21h-6.32l-1.1,3.57h-4.93l7.01-19.12h4.33l7.07,19.12h-4.95l-1.12-3.57Zm-5.21-3.56h4.11l-2.06-6.63-2.05,6.63Z"/>
        <path class="cls-1" d="m154.38,72.01h-2.5v6.76h-4.61v-19.12h7.53c2.27,0,4.04.5,5.32,1.51,1.28,1.01,1.92,2.43,1.92,4.26,0,1.33-.27,2.43-.81,3.31s-1.38,1.58-2.53,2.13l3.99,7.72v.2h-4.94l-3.38-6.76Zm-2.5-3.55h2.92c.88,0,1.53-.23,1.98-.69.44-.46.66-1.1.66-1.93s-.22-1.47-.67-1.94c-.45-.47-1.1-.7-1.97-.7h-2.92v5.27Z"/>
        <path class="cls-1" d="m179.58,63.21h-5.74v15.57h-4.61v-15.57h-5.64v-3.56h15.99v3.56Z"/>
        <path class="cls-1" d="m197.9,78.78h-4.58l-6.78-11.9v11.9h-4.61v-19.12h4.61l6.76,11.9v-11.9h4.6v19.12Z"/>
        <path class="cls-1" d="m213.08,70.66h-7.25v4.57h8.56v3.55h-13.17v-19.12h13.2v3.56h-8.59v4.03h7.25v3.42Z"/>
        <path class="cls-1" d="m223.79,72.01h-2.5v6.76h-4.61v-19.12h7.53c2.27,0,4.04.5,5.32,1.51,1.28,1.01,1.92,2.43,1.92,4.26,0,1.33-.27,2.43-.81,3.31s-1.38,1.58-2.53,2.13l3.99,7.72v.2h-4.94l-3.38-6.76Zm-2.5-3.55h2.92c.88,0,1.53-.23,1.98-.69s.66-1.1.66-1.93-.22-1.47-.67-1.94c-.45-.47-1.1-.7-1.97-.7h-2.92v5.27Z"/>
        <path class="cls-1" d="m244.5,73.69c0-.67-.24-1.2-.72-1.58s-1.32-.77-2.52-1.17c-1.2-.4-2.18-.79-2.94-1.17-2.48-1.22-3.72-2.89-3.72-5.02,0-1.06.31-1.99.93-2.8s1.49-1.44,2.62-1.89c1.13-.45,2.4-.68,3.81-.68s2.61.25,3.7.74c1.09.49,1.94,1.19,2.54,2.1s.91,1.94.91,3.11h-4.6c0-.78-.24-1.38-.72-1.81-.48-.43-1.12-.64-1.94-.64s-1.47.18-1.95.55c-.48.36-.72.83-.72,1.39,0,.49.26.93.79,1.33.53.4,1.45.81,2.77,1.24,1.32.42,2.41.88,3.26,1.37,2.07,1.19,3.1,2.83,3.1,4.93,0,1.67-.63,2.99-1.89,3.94-1.26.95-2.99,1.43-5.19,1.43-1.55,0-2.95-.28-4.21-.83-1.26-.56-2.2-1.32-2.84-2.29-.63-.97-.95-2.08-.95-3.34h4.62c0,1.02.27,1.78.79,2.27.53.49,1.39.73,2.58.73.76,0,1.36-.16,1.81-.49.44-.33.66-.79.66-1.39Z"/>
        <path class="cls-1" d="m267.86,78.78h-4.58v-7.99h-6.79v7.99h-4.61v-19.12h4.61v7.59h6.79v-7.59h4.58v19.12Z"/>
        <path class="cls-1" d="m276.09,78.78h-4.6v-19.12h4.6v19.12Z"/>
        <path class="cls-1" d="m284.31,72.29v6.49h-4.61v-19.12h7.63c1.46,0,2.76.27,3.88.81,1.13.54,2,1.3,2.61,2.3s.93,2.12.93,3.38c0,1.87-.67,3.36-2,4.47-1.34,1.12-3.17,1.67-5.5,1.67h-2.94Zm0-3.56h3.02c.89,0,1.57-.22,2.04-.67s.7-1.08.7-1.89c0-.89-.24-1.61-.72-2.14-.48-.53-1.14-.81-1.97-.81h-3.07v5.52Z"/>
      </g>
    </g>
  </g>
</svg>