<?xml version="1.0" encoding="UTF-8"?><svg xmlns="http://www.w3.org/2000/svg" viewBox="0 0 272.66 272.66"><defs><style>.cls-1{fill:#b57aff;mix-blend-mode:multiply;}.cls-1,.cls-2,.cls-3{stroke-width:0px;}.cls-2,.cls-4,.cls-5,.cls-6{fill:none;}.cls-4{stroke-linejoin:round;}.cls-4,.cls-5{stroke-linecap:round;}.cls-4,.cls-5,.cls-6{stroke:#000;stroke-width:4px;}.cls-5,.cls-6{stroke-miterlimit:10;}.cls-7{isolation:isolate;}</style></defs><g class="cls-7"><g id="Layer_2"><g id="Layer_1-2"><rect class="cls-2" width="272.66" height="272.66"/><circle class="cls-1" cx="132.1" cy="155.24" r="104.62"/><path class="cls-4" d="M106.41,123.9V27.39s10.73,12.53,22.53,24.33h63.85s11.94-13.24,22.54-23.83v104.38s-2.03,102.08-108.67,102.08l-.04-15"/><path class="cls-6" d="M87.01,221.34v-65.2s.54-33.82,33.82-33.82c0,0,28.74-1.38,33.23,26.38.75,4.62.6,9.32-.18,13.93-2.72,16.25-14.81,58.7-66.87,58.7Z"/><circle class="cls-5" cx="134.81" cy="97.7" r="10.55"/><circle class="cls-3" cx="134.81" cy="97.83" r="2.57"/><path class="cls-4" d="M106.49,65.23c29.96,0,54.24,17.2,54.24,38.42"/><path class="cls-4" d="M160.74,103.65c0-21.22,24.29-38.42,54.24-38.42"/><line class="cls-5" x1="88.44" y1="166.67" x2="113.59" y2="141.52"/><line class="cls-5" x1="88.44" y1="184.1" x2="113.59" y2="158.95"/><line class="cls-5" x1="88.44" y1="201.53" x2="113.59" y2="176.38"/><circle class="cls-5" cx="186.84" cy="97.7" r="10.55"/><circle class="cls-3" cx="186.84" cy="97.83" r="2.57"/><path class="cls-4" d="M150.76,217.44c9.21,0,16.68,7.47,16.68,16.68"/><path class="cls-4" d="M170.11,217.44c9.21,0,16.68,7.47,16.68,16.68"/></g></g></g></svg>