<?xml version="1.0" encoding="UTF-8"?><svg xmlns="http://www.w3.org/2000/svg" viewBox="0 0 272.66 272.66"><defs><style>.cls-1{fill:#b57aff;mix-blend-mode:multiply;}.cls-1,.cls-2,.cls-3{stroke-width:0px;}.cls-2,.cls-4,.cls-5{fill:none;}.cls-4{stroke-linecap:round;stroke-linejoin:round;}.cls-4,.cls-5{stroke:#000;stroke-width:4px;}.cls-5{stroke-miterlimit:10;}.cls-6{isolation:isolate;}</style></defs><g class="cls-6"><g id="Layer_2"><g id="Layer_1-2"><rect class="cls-2" width="272.66" height="272.66"/><circle class="cls-1" cx="127.77" cy="155.24" r="104.62"/><path class="cls-5" d="M114.77,47.51l4.29.74c-.82,3.18-2.53,6.11-4.91,8.38l-4.35,4.16c-.36.35-.71.71-1.07,1.06-.25.25-.5.5-.75.75-.41.42-.82.83-1.22,1.25-.58.61-1.15,1.22-1.71,1.84-.25.28-.51.56-.76.85-.68.77-1.35,1.56-2.01,2.35-.02.03-.04.05-.07.08-4.94,6-9.09,12.6-12.41,19.71-.35.74-.68,1.49-1.01,2.24h.01c-2.95,6.77-5.09,13.9-6.35,21.19l-17.7,103.02c-1.23,7.14,3.57,13.93,10.71,15.16l23.35,4.01,22.72,3.9,23.35,4.01c7.14,1.23,13.93-3.57,15.16-10.71l17.7-103.02c1.25-7.29,1.61-14.72,1.09-22.09h.01c-.05-.82-.12-1.64-.2-2.45-.75-7.81-2.47-15.41-5.12-22.72-.01-.03-.02-.07-.03-.1-.35-.97-.72-1.93-1.11-2.89-.14-.35-.28-.7-.43-1.05-.32-.77-.65-1.54-.99-2.31-.24-.53-.49-1.06-.74-1.59-.15-.32-.31-.64-.46-.96-.22-.45-.42-.91-.65-1.36l-2.72-5.37c-1.48-2.93-2.11-6.27-1.83-9.54l4.3.74"/><rect class="cls-5" x="113.31" y="24.72" width="61.71" height="27.56" transform="translate(8.6 -23.85) rotate(9.75)"/><rect class="cls-3" x="128.4" y="29.47" width="2.78" height="10.97" transform="translate(7.79 -21.47) rotate(9.75)"/><rect class="cls-3" x="142.95" y="31.97" width="2.78" height="10.97" transform="translate(8.43 -23.9) rotate(9.75)"/><rect class="cls-3" x="157.51" y="34.47" width="2.78" height="10.97" transform="translate(9.06 -26.33) rotate(9.75)"/><path class="cls-4" d="M176,140.84c10.17-19.43,26.41-43.6,50.4-58.91,0,0,26.59-18.79,37.06-4.93,0,0,7.86,17.71-35.47,41.02,0,0,25.2-17.48,33.43-11,0,0,16.7,16.11-32.93,37.56,0,0,25.3-13.56,27.02-3.15,0,0,3.81,20.9-37.88,30.1-34.58,7.62-36.58,1.83-46.98,6.45"/><path class="cls-4" d="M81.73,111.51c-3.99-19.09-11.43-40.81-25.48-58.81,0,0-18.79-26.59-33.29-17.01,0,0-13.32,14.07,19.75,50.51,0,0-17.92-24.88-27.84-21.53,0,0-21.12,9.61,18.51,46.4,0,0-19.33-21.23-24.42-11.98,0,0-10.57,18.43,25.66,41.01,27.06,16.86,32.85,14.65,39.77,19.76"/><ellipse class="cls-3" cx="106.08" cy="154.22" rx="4.73" ry="3.45" transform="translate(-60.14 240.3) rotate(-82.86)"/><ellipse class="cls-3" cx="139.49" cy="158.41" rx="4.73" ry="3.45" transform="translate(-35.04 277.12) rotate(-82.86)"/><path class="cls-4" d="M92.18,183.76s16.36,36.88,57.67,7.23"/></g></g></g></svg>